<?xml version="1.0" encoding="UTF-8" standalone="no"?>
<!-- Created with Inkscape (http://www.inkscape.org/) -->

<svg
   width="210mm"
   height="297mm"
   viewBox="0 0 210 297"
   version="1.1"
   id="svg5"
   inkscape:version="1.2 (dc2aedaf03, 2022-05-15)"
   sodipodi:docname="desenho.svg"
   xmlns:inkscape="http://www.inkscape.org/namespaces/inkscape"
   xmlns:sodipodi="http://sodipodi.sourceforge.net/DTD/sodipodi-0.dtd"
   xmlns="http://www.w3.org/2000/svg"
   xmlns:svg="http://www.w3.org/2000/svg">
  <sodipodi:namedview
     id="namedview7"
     pagecolor="#ffffff"
     bordercolor="#000000"
     borderopacity="0.25"
     inkscape:showpageshadow="2"
     inkscape:pageopacity="0.0"
     inkscape:pagecheckerboard="0"
     inkscape:deskcolor="#d1d1d1"
     inkscape:document-units="mm"
     showgrid="false"
     inkscape:zoom="1.0544998"
     inkscape:cx="280.70182"
     inkscape:cy="405.87965"
     inkscape:window-width="960"
     inkscape:window-height="1017"
     inkscape:window-x="-8"
     inkscape:window-y="-8"
     inkscape:window-maximized="0"
     inkscape:current-layer="layer1" />
  <defs
     id="defs2" />
  <g
     inkscape:label="Camada 1"
     inkscape:groupmode="layer"
     id="layer1">
    <path
       style="fill:#000000;fill-opacity:1;stroke-width:0.264583"
       d="m 155.8144,136.44679 c -36.63269,0 -36.63269,0 -36.63269,0 z"
       id="path5537" />
    <path
       style="fill:#000000;fill-opacity:1;stroke-width:0.264583"
       d="M 155.8144,136.44679 90.829005,194.20345 155.8144,136.44679"
       id="path5539" />
    <path
       id="path5608"
       style="fill:#000000;fill-opacity:1;stroke-width:0.264583"
       d="m 111.2234,169.22816 c 0,0.0169 -0.003,0.0342 -0.003,0.0512 h 0.0243 c -0.007,-0.017 -0.0141,-0.0341 -0.0212,-0.0512 z m 56.45443,0 -24.71529,0.80047 h 9.40977 10.53837 c 1.08727,0 2.19833,0.22616 3.26182,0 0.55589,-0.11821 1.00351,-0.53369 1.50533,-0.80047 z m -24.71529,0.80047 h -19.69543 -10.28723 c -0.0747,0 -0.74691,0.0243 -1.23972,0.0264 -0.0416,0.026 -0.0893,0.0489 -0.14366,0.0667 0.12663,0.30348 0.25319,0.60706 0.37982,0.91054 z" />
    <circle
       style="fill:#30ff98;fill-opacity:1;stroke-width:0.264583"
       id="path5681"
       cx="58.799301"
       cy="159.45641"
       r="12.862903" />
    <text
       xml:space="preserve"
       style="font-style:normal;font-variant:normal;font-weight:normal;font-stretch:normal;font-size:3.175px;font-family:'Book Antiqua';-inkscape-font-specification:'Book Antiqua';fill:#000000;fill-opacity:1;stroke-width:0.264583"
       x="40.983871"
       y="165.32512"
       id="text5787"><tspan
         sodipodi:role="line"
         id="tspan5785"
         style="fill:#000000;stroke-width:0.264583"
         x="40.983871"
         y="165.32512" /></text>
    <text
       xml:space="preserve"
       style="font-style:normal;font-variant:normal;font-weight:normal;font-stretch:normal;font-size:19.7556px;font-family:'Book Antiqua';-inkscape-font-specification:'Book Antiqua';fill:#000000;fill-opacity:1;stroke-width:0.264583"
       x="47.861279"
       y="165.45671"
       id="text5791"><tspan
         sodipodi:role="line"
         id="tspan5789"
         style="font-size:19.7556px;stroke-width:0.264583"
         x="47.861279"
         y="165.45671">Rodrigo Ochs</tspan></text>
    <path
       style="fill:#000000;fill-opacity:1;stroke-width:0.264583"
       d="m 158.98067,95.137802 c -36.63269,0 -36.63269,0 -36.63269,0 z"
       id="path5537-9" />
    <path
       style="fill:#000000;fill-opacity:1;stroke-width:0.264583"
       d="M 158.98067,95.137802 93.995283,152.89446 158.98067,95.137802"
       id="path5539-2" />
    <path
       style="fill:#000000;fill-opacity:1;stroke-width:0.264583"
       d="m 110.05344,95.137802 h 48.92723 -46.66905"
       id="path5604-9" />
    <circle
       style="fill:#30ff98;fill-opacity:1;stroke-width:0.153021"
       id="path5681-3"
       cx="82.945824"
       cy="116.16825"
       r="7.4392266" />
    <text
       xml:space="preserve"
       style="font-style:normal;font-variant:normal;font-weight:normal;font-stretch:normal;font-size:3.175px;font-family:'Book Antiqua';-inkscape-font-specification:'Book Antiqua';fill:#000000;fill-opacity:1;stroke-width:0.264583"
       x="44.15015"
       y="124.01614"
       id="text5787-3"><tspan
         sodipodi:role="line"
         id="tspan5785-9"
         style="fill:#000000;stroke-width:0.264583"
         x="44.15015"
         y="124.01614" /></text>
    <text
       xml:space="preserve"
       style="font-style:normal;font-variant:normal;font-weight:normal;font-stretch:normal;font-size:10.9748px;font-family:'Book Antiqua';-inkscape-font-specification:'Book Antiqua';fill:#000000;fill-opacity:1;stroke-width:0.146983"
       x="77.084801"
       y="119.5851"
       id="text5791-1"><tspan
         sodipodi:role="line"
         id="tspan5789-8"
         style="font-size:10.9748px;stroke-width:0.146983"
         x="77.084801"
         y="119.5851">Rodrigo Ochs</tspan></text>
    <path
       style="fill:#000000;fill-opacity:1;stroke-width:0.12812"
       d="m 137.51387,64.799089 c -17.73883,0 -17.73883,0 -17.73883,0 z"
       id="path5537-7" />
    <path
       style="fill:#000000;fill-opacity:1;stroke-width:0.12812"
       d="m 137.51387,64.799089 -31.4682,27.967787 31.4682,-27.967787"
       id="path5539-4" />
    <path
       style="fill:#000000;fill-opacity:1;stroke-width:0.12812"
       d="m 113.82159,64.799089 h 23.69228 -22.59879"
       id="path5604-1" />
    <path
       id="path5608-7"
       style="fill:#000000;fill-opacity:1;stroke-width:0.0645285"
       d="m 157.2277,58.862123 c 0,0.0041 -5e-4,0.0083 -5e-4,0.01248 h 0.006 c -0.002,-0.0041 -0.004,-0.0083 -0.005,-0.01248 z m 13.76856,0 -6.02776,0.195225 h 2.29493 2.57018 c 0.26517,0 0.53615,0.05516 0.79552,0 0.13557,-0.02883 0.24474,-0.130161 0.36713,-0.195225 z m -6.02776,0.195225 h -4.80348 -2.50893 c -0.0182,0 -0.18217,0.0059 -0.30236,0.0064 -0.0101,0.0063 -0.0218,0.01193 -0.035,0.01627 0.0309,0.07402 0.0617,0.148055 0.0926,0.222069 z" />
    <circle
       style="fill:#30ff98;fill-opacity:1;stroke-width:0.0645285"
       id="path5681-8"
       cx="144.44208"
       cy="56.478905"
       r="3.1371081" />
    <text
       xml:space="preserve"
       style="font-style:normal;font-variant:normal;font-weight:normal;font-stretch:normal;font-size:1.53745px;font-family:'Book Antiqua';-inkscape-font-specification:'Book Antiqua';fill:#000000;fill-opacity:1;stroke-width:0.12812"
       x="81.90892"
       y="78.782982"
       id="text5787-8"><tspan
         sodipodi:role="line"
         id="tspan5785-5"
         style="fill:#000000;stroke-width:0.12812"
         x="81.90892"
         y="78.782982" /></text>
    <text
       xml:space="preserve"
       style="font-style:normal;font-variant:normal;font-weight:normal;font-stretch:normal;font-size:4.81815px;font-family:'Book Antiqua';-inkscape-font-specification:'Book Antiqua';fill:#000000;fill-opacity:1;stroke-width:0.0645285"
       x="141.77443"
       y="57.942314"
       id="text5791-0"><tspan
         sodipodi:role="line"
         id="tspan5789-4"
         style="font-size:4.81815px;stroke-width:0.0645285"
         x="141.77443"
         y="57.942314">Rodrigo Ochs</tspan></text>
    <path
       id="path5608-1"
       style="fill:#000000;fill-opacity:1;stroke-width:0.138183"
       d="m 77.402973,120.73833 c 0,0.009 -0.002,0.0179 -0.002,0.0267 h 0.0127 c -0.004,-0.009 -0.007,-0.0178 -0.0111,-0.0267 z m 29.484197,0 -12.90794,0.41806 h 4.9144 5.50382 c 0.56785,0 1.14811,0.11811 1.70353,0 0.29033,-0.0618 0.5241,-0.27873 0.78619,-0.41806 z m -12.90794,0.41806 H 83.69299 78.32032 c -0.039,0 -0.39009,0.0127 -0.647457,0.0138 -0.0218,0.0135 -0.0467,0.0256 -0.075,0.0349 0.0661,0.15849 0.13223,0.31705 0.19837,0.47554 z" />
    <path
       id="path5608-1-7"
       style="fill:#000000;fill-opacity:1;stroke-width:0.0752338"
       d="m 116.77888,120.42473 c 0,0.005 -0.001,0.0108 -0.001,0.0156 l 0.007,-0.006 c -0.002,-0.003 -0.004,-0.006 -0.006,-0.009 z m 16.05269,-14.95616 -7.02773,6.7753 2.67564,-2.49288 2.99656,-2.79187 c 0.30917,-0.28805 0.62509,-0.51808 0.92749,-0.86413 0.15807,-0.18092 0.28534,-0.41761 0.42804,-0.62642 z m -7.02773,6.7753 -5.60035,5.2178 -2.92516,2.72534 c -0.0212,0.0198 -0.21238,0.20479 -0.35251,0.33594 -0.0119,0.0184 -0.0254,0.0376 -0.0408,0.0571 0.036,0.0528 0.072,0.10554 0.108,0.15828 z" />
    <path
       id="path5608-1-7-1"
       style="fill:#000000;fill-opacity:1;stroke-width:0.0494939"
       d="m 123.95649,120.53212 c 0,0.003 -6.6e-4,0.007 -6.6e-4,0.0101 l 0.005,-0.005 c -0.001,-0.002 -0.002,-0.005 -0.005,-0.006 z m 10.56056,-9.83917 -4.62332,4.45725 1.76022,-1.63999 1.97134,-1.83668 c 0.2034,-0.18949 0.41123,-0.34083 0.61017,-0.56848 0.10397,-0.11903 0.18772,-0.27473 0.28159,-0.4121 z m -4.62332,4.45725 -3.68429,3.43262 -1.92437,1.79292 c -0.014,0.0131 -0.13972,0.13472 -0.23191,0.221 -0.008,0.0122 -0.0167,0.0248 -0.0268,0.0375 0.0237,0.0347 0.0473,0.0694 0.0711,0.10409 z" />
    <path
       id="path5608-1-7-12"
       style="fill:#000000;fill-opacity:1;stroke-width:0.029239"
       d="m 129.23683,120.76228 c 0,0.002 -3.9e-4,0.004 -3.9e-4,0.006 l 0.003,-0.002 c -7.8e-4,-10e-4 -0.002,-0.002 -0.002,-0.003 z m 6.23874,-5.81258 -2.73127,2.63316 1.03987,-0.96884 1.16458,-1.08503 c 0.12016,-0.11195 0.24294,-0.20135 0.36047,-0.33584 0.0614,-0.0703 0.11089,-0.1623 0.16635,-0.24345 z m -2.73127,2.63316 -2.17653,2.02785 -1.13683,1.05918 c -0.008,0.008 -0.0825,0.0796 -0.137,0.13056 -0.005,0.007 -0.01,0.0146 -0.0159,0.0222 0.014,0.0205 0.028,0.041 0.042,0.0615 z" />
    <path
       id="path5608-1-7-7"
       style="fill:#000000;fill-opacity:1;stroke-width:0.0193158"
       d="m 134.51731,120.65787 c 0,10e-4 -2.6e-4,0.003 -2.6e-4,0.004 l 0.002,-0.002 c -5.2e-4,-7.7e-4 -0.001,-0.002 -0.002,-0.002 z m 4.12142,-3.8399 -1.80433,1.73952 0.68696,-0.64003 0.76934,-0.7168 c 0.0794,-0.0739 0.16049,-0.13301 0.23813,-0.22186 0.0406,-0.0464 0.0733,-0.10722 0.1099,-0.16083 z m -1.80433,1.73952 -1.43785,1.33963 -0.75101,0.69971 c -0.005,0.005 -0.0545,0.0526 -0.0905,0.0862 -0.003,0.005 -0.007,0.01 -0.0105,0.0147 0.009,0.0136 0.0185,0.0271 0.0277,0.0406 z" />
    <path
       id="path5608-1-7-8"
       style="fill:#000000;fill-opacity:1;stroke-width:0.0153456"
       d="m 138.63893,120.67432 c 0,0.001 -2e-4,0.002 -2e-4,0.003 l 10e-4,-10e-4 c -4.1e-4,-6.1e-4 -8.2e-4,-0.001 -10e-4,-0.002 z m 3.27431,-3.05065 -1.43346,1.38198 0.54575,-0.50848 0.61122,-0.56947 c 0.0631,-0.0588 0.1275,-0.10567 0.18918,-0.17626 0.0322,-0.0369 0.0582,-0.0852 0.0873,-0.12777 z m -1.43346,1.38198 -1.14232,1.06429 -0.59665,0.55589 c -0.004,0.004 -0.0433,0.0418 -0.0719,0.0685 -0.002,0.004 -0.005,0.008 -0.008,0.0117 0.007,0.0108 0.0147,0.0215 0.022,0.0323 z" />
    <circle
       style="fill:#30ff98;fill-opacity:1;stroke-width:0.251342"
       id="path5681-3-7"
       cx="132.53995"
       cy="81.314209"
       r="12.219149" />
    <text
       xml:space="preserve"
       style="font-style:normal;font-variant:normal;font-weight:normal;font-stretch:normal;font-size:10.9748px;font-family:'Book Antiqua';-inkscape-font-specification:'Book Antiqua';fill:#000000;fill-opacity:1;stroke-width:0.146983"
       x="117.49242"
       y="84.662346"
       id="text5791-1-4"><tspan
         sodipodi:role="line"
         id="tspan5789-8-3"
         style="font-size:10.9748px;stroke-width:0.146983"
         x="117.49242"
         y="84.662346"> Ochs</tspan></text>
    <path
       id="path5608-1-7-9"
       style="fill:#000000;fill-opacity:1;stroke-width:0.0669735"
       d="m 120.78554,85.147825 c 0,0.0045 -8.9e-4,0.0096 -8.9e-4,0.01389 l 0.006,-0.0053 c -0.002,-0.0027 -0.004,-0.0053 -0.005,-0.008 z m 14.29019,-13.314055 -6.25612,6.031409 2.38187,-2.219175 2.66755,-2.485338 c 0.27522,-0.256424 0.55646,-0.461198 0.82566,-0.769254 0.14071,-0.161055 0.25401,-0.371758 0.38104,-0.557642 z m -6.25612,6.031409 -4.98547,4.644914 -2.60399,2.426112 c -0.0189,0.01763 -0.18906,0.182305 -0.31381,0.299056 -0.0106,0.01638 -0.0226,0.03347 -0.0363,0.05083 0.0321,0.047 0.0641,0.09395 0.0962,0.140901 z" />
    <path
       id="path5608-1-7-1-6"
       style="fill:#000000;fill-opacity:1;stroke-width:0.0494939"
       d="m 125.66839,86.010223 c 0,0.003 -6.6e-4,0.007 -6.6e-4,0.0101 l 0.005,-0.005 c -0.001,-0.002 -0.002,-0.005 -0.005,-0.006 z m 10.56056,-9.83917 -4.62332,4.45725 1.76022,-1.63999 1.97134,-1.83668 c 0.2034,-0.18949 0.41123,-0.34083 0.61017,-0.56848 0.10397,-0.11903 0.18772,-0.27473 0.28159,-0.4121 z m -4.62332,4.45725 -3.68429,3.43262 -1.92437,1.79292 c -0.014,0.0131 -0.13972,0.13472 -0.23191,0.221 -0.008,0.0122 -0.0167,0.0248 -0.0268,0.0375 0.0237,0.0347 0.0473,0.0694 0.0711,0.10409 z" />
    <path
       id="path5608-1-7-12-1"
       style="fill:#000000;fill-opacity:1;stroke-width:0.029239"
       d="m 130.94873,86.240383 c 0,0.002 -3.9e-4,0.004 -3.9e-4,0.006 l 0.003,-0.002 c -7.8e-4,-0.001 -0.002,-0.002 -0.002,-0.003 z m 6.23874,-5.81258 -2.73127,2.63316 1.03987,-0.96884 1.16458,-1.08503 c 0.12016,-0.11195 0.24294,-0.20135 0.36047,-0.33584 0.0614,-0.0703 0.11089,-0.1623 0.16635,-0.24345 z m -2.73127,2.63316 -2.17653,2.02785 -1.13683,1.05918 c -0.008,0.008 -0.0825,0.0796 -0.137,0.13056 -0.005,0.007 -0.01,0.0146 -0.0159,0.0222 0.014,0.0205 0.028,0.041 0.042,0.0615 z" />
    <path
       id="path5608-1-7-7-5"
       style="fill:#000000;fill-opacity:1;stroke-width:0.0193158"
       d="m 136.22921,86.135973 c 0,10e-4 -2.6e-4,0.003 -2.6e-4,0.004 l 0.002,-0.002 c -5.2e-4,-7.7e-4 -0.001,-0.002 -0.002,-0.002 z m 4.12142,-3.8399 -1.80433,1.73952 0.68696,-0.64003 0.76934,-0.7168 c 0.0794,-0.0739 0.16049,-0.13301 0.23813,-0.22186 0.0406,-0.0464 0.0733,-0.10722 0.1099,-0.16083 z m -1.80433,1.73952 -1.43785,1.33963 -0.75101,0.69971 c -0.005,0.005 -0.0545,0.0526 -0.0905,0.0862 -0.003,0.005 -0.007,0.01 -0.0105,0.0147 0.009,0.0136 0.0185,0.0271 0.0277,0.0406 z" />
    <path
       id="path5608-1-7-8-0"
       style="fill:#000000;fill-opacity:1;stroke-width:0.0153456"
       d="m 140.35083,86.152423 c 0,0.001 -2e-4,0.002 -2e-4,0.003 l 0.001,-0.001 c -4.1e-4,-6.1e-4 -8.2e-4,-10e-4 -0.001,-0.002 z m 3.27431,-3.05065 -1.43346,1.38198 0.54575,-0.50848 0.61122,-0.56947 c 0.0631,-0.0588 0.1275,-0.10567 0.18918,-0.17626 0.0322,-0.0369 0.0582,-0.0852 0.0873,-0.12777 z m -1.43346,1.38198 -1.14232,1.06429 -0.59665,0.55589 c -0.004,0.004 -0.0433,0.0418 -0.0719,0.0685 -0.002,0.004 -0.005,0.008 -0.008,0.0117 0.007,0.0108 0.0147,0.0215 0.022,0.0323 z" />
    <circle
       style="fill:#30ff98;fill-opacity:1;stroke-width:0.294025"
       id="path5681-3-3"
       cx="79.230911"
       cy="86.030952"
       r="14.294247" />
    <text
       xml:space="preserve"
       style="font-style:normal;font-variant:normal;font-weight:normal;font-stretch:normal;font-size:10.9748px;font-family:'Book Antiqua';-inkscape-font-specification:'Book Antiqua';fill:#000000;fill-opacity:1;stroke-width:0.146983"
       x="25.701891"
       y="89.639053"
       id="text5791-1-41"><tspan
         sodipodi:role="line"
         id="tspan5789-8-5"
         style="font-size:10.9748px;stroke-width:0.146983"
         x="25.701891"
         y="89.639053">Rodrigo Ochs</tspan></text>
    <path
       id="path5608-1-1"
       style="fill:#000000;fill-opacity:1;stroke-width:0.138183"
       d="m 26.020063,90.79229 c 0,0.009 -0.002,0.0179 -0.002,0.0267 h 0.0127 c -0.004,-0.009 -0.007,-0.0178 -0.0111,-0.0267 z m 29.484197,0 -12.90794,0.41806 h 4.9144 5.50382 c 0.56785,0 1.14811,0.11811 1.70353,0 0.29033,-0.0618 0.5241,-0.27873 0.78619,-0.41806 z M 42.59632,91.21035 H 32.31008 26.93741 c -0.039,0 -0.39009,0.0127 -0.647457,0.0138 -0.0218,0.0135 -0.0467,0.0256 -0.075,0.0349 0.0661,0.15849 0.13223,0.31705 0.19837,0.47554 z" />
    <path
       id="path5608-1-7-5"
       style="fill:#000000;fill-opacity:1;stroke-width:0.0752338"
       d="m 65.39597,90.47869 c 0,0.005 -0.001,0.0108 -0.001,0.0156 l 0.007,-0.006 c -0.002,-0.003 -0.004,-0.006 -0.006,-0.009 z m 16.05269,-14.95616 -7.02773,6.7753 2.67564,-2.49288 2.99656,-2.79187 c 0.30917,-0.28805 0.62509,-0.51808 0.92749,-0.86413 0.15807,-0.18092 0.28534,-0.41761 0.42804,-0.62642 z m -7.02773,6.7753 -5.60035,5.2178 -2.92516,2.72534 c -0.0212,0.0198 -0.21238,0.20479 -0.35251,0.33594 -0.0119,0.0184 -0.0254,0.0376 -0.0408,0.0571 0.036,0.0528 0.072,0.10554 0.108,0.15828 z" />
    <path
       id="path5608-1-7-1-1"
       style="fill:#000000;fill-opacity:1;stroke-width:0.0494939"
       d="m 72.57358,90.58608 c 0,0.003 -6.6e-4,0.007 -6.6e-4,0.0101 l 0.005,-0.005 c -0.001,-0.002 -0.002,-0.005 -0.005,-0.006 z m 10.56056,-9.83917 -4.62332,4.45725 1.76022,-1.63999 1.97134,-1.83668 c 0.2034,-0.18949 0.41123,-0.34083 0.61017,-0.56848 0.10397,-0.11903 0.18772,-0.27473 0.28159,-0.4121 z m -4.62332,4.45725 -3.68429,3.43262 -1.92437,1.79292 c -0.014,0.0131 -0.13972,0.13472 -0.23191,0.221 -0.008,0.0122 -0.0167,0.0248 -0.0268,0.0375 0.0237,0.0347 0.0473,0.0694 0.0711,0.10409 z" />
    <path
       id="path5608-1-7-12-0"
       style="fill:#000000;fill-opacity:1;stroke-width:0.029239"
       d="m 77.85392,90.81624 c 0,0.002 -3.9e-4,0.004 -3.9e-4,0.006 l 0.003,-0.002 c -7.8e-4,-0.001 -0.002,-0.002 -0.002,-0.003 z m 6.238738,-5.81258 -2.731268,2.63316 1.03987,-0.96884 1.16458,-1.08503 c 0.12016,-0.11195 0.24294,-0.20135 0.36047,-0.33584 0.0614,-0.0703 0.110888,-0.1623 0.166348,-0.24345 z m -2.731268,2.63316 -2.17653,2.02785 -1.13683,1.05918 c -0.008,0.008 -0.0825,0.0796 -0.137,0.13056 -0.005,0.007 -0.01,0.0146 -0.0159,0.0222 0.014,0.0205 0.028,0.041 0.042,0.0615 z" />
    <path
       id="path5608-1-7-7-9"
       style="fill:#000000;fill-opacity:1;stroke-width:0.0193158"
       d="m 83.1344,90.71183 c 0,10e-4 -2.6e-4,0.003 -2.6e-4,0.004 l 0.002,-0.002 c -5.2e-4,-7.7e-4 -10e-4,-0.002 -0.002,-0.002 z m 4.121418,-3.8399 -1.80433,1.73952 0.68696,-0.64003 0.76934,-0.7168 c 0.0794,-0.0739 0.16049,-0.13301 0.23813,-0.22186 0.0406,-0.0464 0.0733,-0.10722 0.1099,-0.16083 z m -1.80433,1.73952 -1.437848,1.33963 -0.75101,0.69971 c -0.005,0.005 -0.0545,0.0526 -0.0905,0.0862 -0.003,0.005 -0.007,0.01 -0.0105,0.0147 0.009,0.0136 0.0185,0.0271 0.0277,0.0406 z" />
    <path
       id="path5608-1-7-8-1"
       style="fill:#000000;fill-opacity:1;stroke-width:0.0153456"
       d="m 87.256018,90.72828 c 0,0.001 -2e-4,0.002 -2e-4,0.003 l 10e-4,-0.001 c -4.1e-4,-6.1e-4 -8.2e-4,-10e-4 -10e-4,-0.002 z m 3.27431,-3.05065 -1.43346,1.38198 0.54575,-0.50848 0.61122,-0.56947 c 0.0631,-0.0588 0.1275,-0.10567 0.18918,-0.17626 0.0322,-0.0369 0.0582,-0.0852 0.0873,-0.12777 z m -1.43346,1.38198 -1.14232,1.06429 -0.59665,0.55589 c -0.004,0.004 -0.0433,0.0418 -0.0719,0.0685 -0.002,0.004 -0.005,0.008 -0.008,0.0117 0.007,0.0108 0.0147,0.0215 0.022,0.0323 z" />
  </g>
</svg>
