<?xml version="1.0" encoding="UTF-8" standalone="no"?>
<!-- Created with Inkscape (http://www.inkscape.org/) -->

<svg
   width="16.0px"
   height="16.0px"
   viewBox="0 0 16.0 16.0"
   version="1.1"
   id="SVGRoot"
   sodipodi:docname="favicon16x16.svg"
   inkscape:version="1.2 (dc2aedaf03, 2022-05-15)"
   xmlns:inkscape="http://www.inkscape.org/namespaces/inkscape"
   xmlns:sodipodi="http://sodipodi.sourceforge.net/DTD/sodipodi-0.dtd"
   xmlns="http://www.w3.org/2000/svg"
   xmlns:svg="http://www.w3.org/2000/svg">
  <sodipodi:namedview
     id="namedview6129"
     pagecolor="#ffffff"
     bordercolor="#000000"
     borderopacity="0.25"
     inkscape:showpageshadow="2"
     inkscape:pageopacity="0.0"
     inkscape:pagecheckerboard="0"
     inkscape:deskcolor="#d1d1d1"
     inkscape:document-units="px"
     showgrid="true"
     inkscape:zoom="11.930303"
     inkscape:cx="12.237745"
     inkscape:cy="3.3528067"
     inkscape:window-width="960"
     inkscape:window-height="1017"
     inkscape:window-x="952"
     inkscape:window-y="-8"
     inkscape:window-maximized="0"
     inkscape:current-layer="layer1">
    <inkscape:grid
       type="xygrid"
       id="grid6135" />
  </sodipodi:namedview>
  <defs
     id="defs6124" />
  <g
     inkscape:label="Camada 1"
     inkscape:groupmode="layer"
     id="layer1">
    <circle
       style="fill:#30ff98;fill-opacity:1;stroke-width:0.153759"
       id="path5681-3"
       cx="8.1802216"
       cy="8.0474586"
       r="7.47508" />
    <text
       xml:space="preserve"
       style="font-style:normal;font-variant:normal;font-weight:normal;font-stretch:normal;font-size:10.9861px;font-family:'Book Antiqua';-inkscape-font-specification:'Book Antiqua';fill:#000000;fill-opacity:1;stroke-width:0.147134"
       x="2"
       y="12"
       id="text5791-1"><tspan
         sodipodi:role="line"
         id="tspan5789-8"
         style="font-size:10.9861px;stroke-width:0.147134"
         x="2"
         y="12">Ro</tspan></text>
    <path
       id="path5608-1"
       style="fill:#000000;fill-opacity:1;stroke-width:0.138849"
       d="m 2.6106663,12.639567 c 0,0.009 -0.00193,0.01809 -0.00193,0.02682 h 0.012474 c -0.00312,-0.009 -0.00624,-0.01777 -0.012474,-0.02682 z m 29.6262717,0 -12.97015,0.420075 h 4.938102 5.530346 c 0.570601,0 1.153646,0.118661 1.711742,0 0.291584,-0.06209 0.52663,-0.280077 0.78996,-0.420075 z m -12.97015,0.420075 H 8.9309726 3.5324167 c -0.039294,0 -0.3919708,0.01279 -0.6505611,0.01372 -0.02183,0.01372 -0.04709,0.02588 -0.075469,0.03508 0.066425,0.159265 0.1328503,0.318579 0.1992755,0.477831 z" />
    <path
       id="path5608-1-7"
       style="fill:#000000;fill-opacity:1;stroke-width:0.0755962"
       d="m 43.869947,15.600619 c 0,0.005 -9.67e-4,0.01092 -9.67e-4,0.01559 l 0.0062,-0.0059 c -0.0019,-0.003 -0.0031,-0.0059 -0.0062,-0.009 z M 60,0.57237481 52.938414,7.380329 55.626949,4.8754366 58.637941,2.0701091 C 58.948549,1.7806764 59.266049,1.5495324 59.569889,1.2018139 59.728624,1.0200335 59.856484,0.78219096 60,0.57237481 Z m -7.061586,6.80795419 -5.627364,5.24295 -2.939266,2.738475 c -0.02183,0.01996 -0.213309,0.205762 -0.354205,0.337558 -0.01247,0.0184 -0.02495,0.0378 -0.04085,0.05738 0.03618,0.05305 0.07235,0.106062 0.108525,0.159046 z" />
    <path
       id="path5608-1-7-1"
       style="fill:#000000;fill-opacity:1;stroke-width:0.0497325"
       d="m 49.388536,15.260778 c 0,0.003 -4.68e-4,0.0072 -4.68e-4,0.01029 l 0.0062,-0.005 c -9.67e-4,-0.002 -0.0019,-0.005 -0.0062,-0.0059 z M 60,5.3741865 55.354387,9.8529194 57.123105,8.2050268 59.103947,6.3594929 C 59.308212,6.1691053 59.517155,6.0170198 59.717054,5.788274 59.821525,5.6686776 59.905726,5.5122199 59.999906,5.3741865 Z m -4.645613,4.4787329 -3.702032,3.4491646 -1.933658,1.80156 c -0.01559,0.0131 -0.140335,0.135376 -0.232956,0.222072 -0.0094,0.01216 -0.01559,0.02495 -0.02807,0.03767 0.02495,0.03486 0.0474,0.06973 0.07142,0.104596 z" />
    <path
       id="path5608-1-7-12"
       style="fill:#000000;fill-opacity:1;stroke-width:0.02938"
       d="m 53.684278,15.793261 c 0,0.002 -2.81e-4,0.0041 -2.81e-4,0.0059 l 0.0029,-0.002 c -9.66e-4,-10e-4 -0.0019,-0.002 -0.0019,-0.003 z m 6.268788,-5.8405916 -2.744419,2.6458476 1.044871,-0.973509 1.170205,-1.090258 c 0.120688,-0.112486 0.244182,-0.202331 0.362188,-0.337458 0.06175,-0.07063 0.111333,-0.163069 0.167155,-0.2446226 z m -2.744419,2.6458476 -2.18704,2.037624 -1.142295,1.064287 c -0.0094,0.0081 -0.08295,0.07999 -0.137528,0.131198 -0.0062,0.0072 -0.0094,0.01466 -0.01559,0.02245 0.01248,0.02058 0.02807,0.0412 0.0421,0.06181 z" />
    <path
       id="path5608-1-7-7"
       style="fill:#000000;fill-opacity:1;stroke-width:0.0194089"
       d="m 58.854088,15.834832 c 0,10e-4 -2.49e-4,0.003 -2.49e-4,0.0041 l 0.0019,-0.002 c -4.68e-4,-7.64e-4 -9.36e-4,-0.002 -0.0019,-0.002 z m 4.141281,-3.858407 -1.813001,1.747905 0.69026,-0.643117 0.773058,-0.720255 c 0.07984,-0.07425 0.161229,-0.133661 0.239193,-0.222945 0.04085,-0.04662 0.0736,-0.107746 0.110396,-0.161603 z m -1.813001,1.747905 -1.444794,1.346085 -0.754627,0.703081 c -0.0062,0.005 -0.05489,0.05286 -0.09106,0.08663 -0.0029,0.005 -0.0062,0.01 -0.0094,0.01466 0.0094,0.01372 0.01871,0.02713 0.02807,0.04079 z" />
    <path
       id="path5608-1-7-8"
       style="fill:#000000;fill-opacity:1;stroke-width:0.0154196"
       d="m 63.310904,15.851441 c 0,0.001 -2.18e-4,0.002 -2.18e-4,0.003 l 9.66e-4,-10e-4 c -4.67e-4,-6.2e-4 -9.66e-4,-10e-4 -9.66e-4,-0.002 z m 3.290072,-3.065352 -1.440366,1.388641 0.548398,-0.510931 0.614136,-0.572217 c 0.06331,-0.05907 0.128173,-0.106187 0.190232,-0.177102 0.03243,-0.03708 0.05832,-0.0856 0.08763,-0.128391 z m -1.440366,1.388641 -1.147814,1.069417 -0.599541,0.55857 c -0.0031,0.0041 -0.04366,0.04201 -0.07235,0.06883 -0.0019,0.0041 -0.0062,0.0081 -0.0094,0.01185 0.0062,0.01092 0.01559,0.02152 0.02183,0.03246 z" />
  </g>
</svg>
