<?xml version="1.0" encoding="UTF-8" standalone="no"?>
<!-- Created with Inkscape (http://www.inkscape.org/) -->

<svg
   width="68.139717mm"
   height="18.138901mm"
   viewBox="0 0 68.139717 18.138901"
   version="1.1"
   id="svg5"
   inkscape:version="1.2 (dc2aedaf03, 2022-05-15)"
   sodipodi:docname="desenho.svg"
   xmlns:inkscape="http://www.inkscape.org/namespaces/inkscape"
   xmlns:sodipodi="http://sodipodi.sourceforge.net/DTD/sodipodi-0.dtd"
   xmlns="http://www.w3.org/2000/svg"
   xmlns:svg="http://www.w3.org/2000/svg">
  <sodipodi:namedview
     id="namedview7"
     pagecolor="#ffffff"
     bordercolor="#000000"
     borderopacity="0.25"
     inkscape:showpageshadow="2"
     inkscape:pageopacity="0.0"
     inkscape:pagecheckerboard="0"
     inkscape:deskcolor="#d1d1d1"
     inkscape:document-units="mm"
     showgrid="false"
     inkscape:zoom="1.0544998"
     inkscape:cx="280.70182"
     inkscape:cy="405.87965"
     inkscape:window-width="960"
     inkscape:window-height="1017"
     inkscape:window-x="-8"
     inkscape:window-y="-8"
     inkscape:window-maximized="0"
     inkscape:current-layer="layer1" />
  <defs
     id="defs2" />
  <g
     inkscape:label="Camada 1"
     inkscape:groupmode="layer"
     id="layer1"
     transform="translate(-75.506601,-105.46856)">
    <circle
       style="fill:#30ff98;fill-opacity:1;stroke-width:0.153021"
       id="path5681-3"
       cx="82.945824"
       cy="116.16825"
       r="7.4392266" />
    <text
       xml:space="preserve"
       style="font-style:normal;font-variant:normal;font-weight:normal;font-stretch:normal;font-size:10.9748px;font-family:'Book Antiqua';-inkscape-font-specification:'Book Antiqua';fill:#000000;fill-opacity:1;stroke-width:0.146983"
       x="77.084801"
       y="119.5851"
       id="text5791-1"><tspan
         sodipodi:role="line"
         id="tspan5789-8"
         style="font-size:10.9748px;stroke-width:0.146983"
         x="77.084801"
         y="119.5851">Rodrigo Ochs</tspan></text>
    <path
       id="path5608-1"
       style="fill:#000000;fill-opacity:1;stroke-width:0.138183"
       d="m 77.402973,120.73833 c 0,0.009 -0.002,0.0179 -0.002,0.0267 h 0.0127 c -0.004,-0.009 -0.007,-0.0178 -0.0111,-0.0267 z m 29.484197,0 -12.90794,0.41806 h 4.9144 5.50382 c 0.56785,0 1.14811,0.11811 1.70353,0 0.29033,-0.0618 0.5241,-0.27873 0.78619,-0.41806 z m -12.90794,0.41806 H 83.69299 78.32032 c -0.039,0 -0.39009,0.0127 -0.647457,0.0138 -0.0218,0.0135 -0.0467,0.0256 -0.075,0.0349 0.0661,0.15849 0.13223,0.31705 0.19837,0.47554 z" />
    <path
       id="path5608-1-7"
       style="fill:#000000;fill-opacity:1;stroke-width:0.0752338"
       d="m 116.77888,120.42473 c 0,0.005 -0.001,0.0108 -0.001,0.0156 l 0.007,-0.006 c -0.002,-0.003 -0.004,-0.006 -0.006,-0.009 z m 16.05269,-14.95616 -7.02773,6.7753 2.67564,-2.49288 2.99656,-2.79187 c 0.30917,-0.28805 0.62509,-0.51808 0.92749,-0.86413 0.15807,-0.18092 0.28534,-0.41761 0.42804,-0.62642 z m -7.02773,6.7753 -5.60035,5.2178 -2.92516,2.72534 c -0.0212,0.0198 -0.21238,0.20479 -0.35251,0.33594 -0.0119,0.0184 -0.0254,0.0376 -0.0408,0.0571 0.036,0.0528 0.072,0.10554 0.108,0.15828 z" />
    <path
       id="path5608-1-7-1"
       style="fill:#000000;fill-opacity:1;stroke-width:0.0494939"
       d="m 123.95649,120.53212 c 0,0.003 -6.6e-4,0.007 -6.6e-4,0.0101 l 0.005,-0.005 c -0.001,-0.002 -0.002,-0.005 -0.005,-0.006 z m 10.56056,-9.83917 -4.62332,4.45725 1.76022,-1.63999 1.97134,-1.83668 c 0.2034,-0.18949 0.41123,-0.34083 0.61017,-0.56848 0.10397,-0.11903 0.18772,-0.27473 0.28159,-0.4121 z m -4.62332,4.45725 -3.68429,3.43262 -1.92437,1.79292 c -0.014,0.0131 -0.13972,0.13472 -0.23191,0.221 -0.008,0.0122 -0.0167,0.0248 -0.0268,0.0375 0.0237,0.0347 0.0473,0.0694 0.0711,0.10409 z" />
    <path
       id="path5608-1-7-12"
       style="fill:#000000;fill-opacity:1;stroke-width:0.029239"
       d="m 129.23683,120.76228 c 0,0.002 -3.9e-4,0.004 -3.9e-4,0.006 l 0.003,-0.002 c -7.8e-4,-10e-4 -0.002,-0.002 -0.002,-0.003 z m 6.23874,-5.81258 -2.73127,2.63316 1.03987,-0.96884 1.16458,-1.08503 c 0.12016,-0.11195 0.24294,-0.20135 0.36047,-0.33584 0.0614,-0.0703 0.11089,-0.1623 0.16635,-0.24345 z m -2.73127,2.63316 -2.17653,2.02785 -1.13683,1.05918 c -0.008,0.008 -0.0825,0.0796 -0.137,0.13056 -0.005,0.007 -0.01,0.0146 -0.0159,0.0222 0.014,0.0205 0.028,0.041 0.042,0.0615 z" />
    <path
       id="path5608-1-7-7"
       style="fill:#000000;fill-opacity:1;stroke-width:0.0193158"
       d="m 134.51731,120.65787 c 0,10e-4 -2.6e-4,0.003 -2.6e-4,0.004 l 0.002,-0.002 c -5.2e-4,-7.7e-4 -0.001,-0.002 -0.002,-0.002 z m 4.12142,-3.8399 -1.80433,1.73952 0.68696,-0.64003 0.76934,-0.7168 c 0.0794,-0.0739 0.16049,-0.13301 0.23813,-0.22186 0.0406,-0.0464 0.0733,-0.10722 0.1099,-0.16083 z m -1.80433,1.73952 -1.43785,1.33963 -0.75101,0.69971 c -0.005,0.005 -0.0545,0.0526 -0.0905,0.0862 -0.003,0.005 -0.007,0.01 -0.0105,0.0147 0.009,0.0136 0.0185,0.0271 0.0277,0.0406 z" />
    <path
       id="path5608-1-7-8"
       style="fill:#000000;fill-opacity:1;stroke-width:0.0153456"
       d="m 138.63893,120.67432 c 0,0.001 -2e-4,0.002 -2e-4,0.003 l 10e-4,-10e-4 c -4.1e-4,-6.1e-4 -8.2e-4,-0.001 -10e-4,-0.002 z m 3.27431,-3.05065 -1.43346,1.38198 0.54575,-0.50848 0.61122,-0.56947 c 0.0631,-0.0588 0.1275,-0.10567 0.18918,-0.17626 0.0322,-0.0369 0.0582,-0.0852 0.0873,-0.12777 z m -1.43346,1.38198 -1.14232,1.06429 -0.59665,0.55589 c -0.004,0.004 -0.0433,0.0418 -0.0719,0.0685 -0.002,0.004 -0.005,0.008 -0.008,0.0117 0.007,0.0108 0.0147,0.0215 0.022,0.0323 z" />
  </g>
</svg>
